<?xml version="1.0" encoding="UTF-8" standalone="no"?>
<!-- Created with Inkscape (http://www.inkscape.org/) -->

<svg
   width="200.0px"
   height="200.0px"
   viewBox="0 0 200.0 200.0"
   version="1.1"
   id="SVGRoot"
   sodipodi:docname="job_timer.svg"
   inkscape:version="1.1.2 (0a00cf5339, 2022-02-04)"
   xmlns:inkscape="http://www.inkscape.org/namespaces/inkscape"
   xmlns:sodipodi="http://sodipodi.sourceforge.net/DTD/sodipodi-0.dtd"
   xmlns="http://www.w3.org/2000/svg"
   xmlns:svg="http://www.w3.org/2000/svg">
  <sodipodi:namedview
     id="namedview1316"
     pagecolor="#ffffff"
     bordercolor="#666666"
     borderopacity="1.0"
     inkscape:pageshadow="2"
     inkscape:pageopacity="0.0"
     inkscape:pagecheckerboard="0"
     inkscape:document-units="px"
     showgrid="true"
     inkscape:zoom="2.4302469"
     inkscape:cx="221.78816"
     inkscape:cy="111.71704"
     inkscape:window-width="1920"
     inkscape:window-height="1021"
     inkscape:window-x="0"
     inkscape:window-y="31"
     inkscape:window-maximized="1"
     inkscape:current-layer="layer1">
    <inkscape:grid
       type="xygrid"
       id="grid1379" />
  </sodipodi:namedview>
  <defs
     id="defs1311">
    <clipPath
       id="clip0_709_446">
      <rect
         width="118"
         height="141"
         fill="white"
         transform="translate(20)"
         id="rect1460" />
    </clipPath>
  </defs>
  <g
     inkscape:label="Layer 1"
     inkscape:groupmode="layer"
     id="layer1">
    <g
       clip-path="url(#clip0_709_446)"
       id="g1456"
       transform="translate(17.737,2.564)">
      <path
         d="M 83.8548,7.64915 H 74.1453 V 24.9848 h 9.7095 z"
         fill="#014e90"
         id="path1404" />
      <path
         d="m 115.155,23.4099 -5.684,9.8367 6.81,3.9217 5.684,-9.8368 z"
         fill="#014e90"
         id="path1406" />
      <path
         d="m 44.3159,22.5188 -6.8047,3.9186 5.6846,9.8368 6.8047,-3.9187 z"
         fill="#014e90"
         id="path1408" />
      <path
         d="M 138,82.1033 C 138,114.629 111.583,141 79,141 46.4175,141 20,114.629 20,82.1033 20,49.5778 46.4175,23.2006 79,23.2006 c 32.583,0 59,26.3712 59,58.8967 z"
         fill="#ffdc00"
         id="path1410" />
      <path
         d="M 138,82.1033 C 138,49.5718 111.583,23.2066 79,23.2066 V 141 c 32.583,0 59,-26.371 59,-58.8967 z"
         fill="#ffe600"
         id="path1412" />
      <path
         d="m 128.254,82.1033 c 0,27.1547 -22.051,49.1677 -49.2539,49.1677 -27.2025,0 -49.2543,-22.019 -49.2543,-49.1677 0,-27.1487 22.0518,-49.1679 49.2543,-49.1679 27.2029,0 49.2539,22.0131 49.2539,49.1679 z"
         fill="#f5f5f5"
         id="path1414" />
      <path
         d="M 128.254,82.1033 C 128.254,54.9485 106.202,32.9354 79,32.9354 v 98.3356 c 27.202,0 49.254,-22.013 49.254,-49.1677 z"
         fill="#ffffff"
         id="path1416" />
      <path
         d="m 79,94.213 c -6.6904,0 -12.1309,-5.437 -12.1309,-12.1097 0,-6.6726 5.4405,-12.1096 12.1309,-12.1096 6.6904,0 12.1309,5.4309 12.1309,12.1096 0,6.6787 -5.4405,12.1097 -12.1309,12.1097 z m 0,-22.182 c -5.5612,0 -10.0899,4.5148 -10.0899,10.0723 0,5.5576 4.5226,10.0723 10.0899,10.0723 5.5673,0 10.09,-4.5208 10.09,-10.0723 C 89.09,76.5518 84.5613,72.031 79,72.031 Z"
         fill="#c8c8c8"
         id="path1418" />
      <path
         d="M 81.0591,83.6283 77.4421,80.0238 111.552,49.5779 Z"
         fill="#014e90"
         id="path1420" />
      <path
         d="M 93.5582,0 H 64.4417 v 12.4954 h 29.1165 z"
         fill="#ffe600"
         id="path1422" />
      <path
         d="M 48.2652,23.5743 36.4423,30.3917 29.2024,17.8661 41.0253,11.0548 Z"
         fill="#ffe600"
         id="path1424" />
      <path
         d="m 118.443,11.9483 -7.24,12.5179 11.828,6.8173 7.24,-12.5179 z"
         fill="#ffe600"
         id="path1426" />
      <path
         d="m 67.5938,98.5107 -5.0601,-5.0512 13.3446,-13.3152 5.054,5.0452 z"
         fill="#014e90"
         id="path1428" />
      <path
         d="m 82.2607,84.8339 c -1.6605,1.6576 -4.3597,1.6576 -6.0202,0 -1.6605,-1.6576 -1.6605,-4.352 0,-6.0157 1.6605,-1.6576 4.3597,-1.6576 6.0202,0 1.6605,1.6637 1.6605,4.352 0,6.0157 z"
         fill="#ffe600"
         id="path1430" />
      <path
         d="M 81.0469,35.9492 H 76.959 v 7.2212 h 4.0879 z"
         fill="#c8c8c8"
         id="path1432" />
      <path
         d="M 81.0469,121.024 H 76.959 v 7.227 h 4.0879 z"
         fill="#c8c8c8"
         id="path1434" />
      <path
         d="m 125.235,80.0599 h -7.24 v 4.0808 h 7.24 z"
         fill="#c8c8c8"
         id="path1436" />
      <path
         d="M 40.0109,80.0599 H 32.771 v 4.0808 h 7.2399 z"
         fill="#c8c8c8"
         id="path1438" />
      <path
         d="m 39.4761,58.1448 -1.0208,1.7642 6.2693,3.6147 1.0208,-1.7642 z"
         fill="#c8c8c8"
         id="path1440" />
      <path
         d="m 113.283,100.671 -1.02,1.765 6.269,3.614 1.021,-1.764 z"
         fill="#c8c8c8"
         id="path1442" />
      <path
         d="m 101.237,41.6261 -3.6188,6.2595 1.7676,1.0184 3.6192,-6.2596 z"
         fill="#c8c8c8"
         id="path1444" />
      <path
         d="m 58.6225,115.314 -3.6279,6.247 1.7657,1.022 3.6279,-6.247 z"
         fill="#c8c8c8"
         id="path1446" />
      <path
         d="m 56.7729,41.6227 -1.7675,1.0187 3.6199,6.2589 1.7675,-1.0186 z"
         fill="#c8c8c8"
         id="path1448" />
      <path
         d="m 99.3921,115.3 -1.773,1.021 3.6189,6.26 1.773,-1.021 z"
         fill="#c8c8c8"
         id="path1450" />
      <path
         d="m 118.533,58.1337 -6.27,3.6126 1.02,1.7645 6.271,-3.6125 z"
         fill="#c8c8c8"
         id="path1452" />
      <path
         d="m 44.7207,100.676 -6.2681,3.617 1.0214,1.764 6.2681,-3.617 z"
         fill="#c8c8c8"
         id="path1454" />
    </g>
    <path
       d="M 33.1891,196.72 H 22.32911 l -2.16,-10.32 4.74,-1.2 0.3,8.28 3.83999,0.3 v -34.02 l -1.07999,-2.88 v -2.76 h 5.75999 z m 10.8469,0 c -1.64,0 -2.78,-0.26 -3.42,-0.78 -0.64,-0.52 -0.96,-1.38 -0.96,-2.58 v -37.8 c 0.88,-0.48 2.02,-0.84 3.42,-1.08 1.44,-0.24 3.34,-0.36 5.7,-0.36 1.08,0 1.96,0.28 2.64,0.84 0.68,0.52 1.02,1.2 1.02,2.04 l -0.42,39.72 z m 3.72,-3.42 0.54,-0.54 0.36,-34.26 c 0,-0.2 -0.18,-0.32 -0.54,-0.36 l -3.72,-0.18 -0.54,0.36 -0.36,34.62 z m 22.0514,-18.42 c 0.8,0.2 1.6,0.74 2.4,1.62 0.84,0.88 1.26,1.98 1.26,3.3 l -1.2,15.12 c 0,0.72 -0.68,1.2 -2.04,1.44 -1.32,0.24 -2.54,0.36 -3.66,0.36 h -8.16 v -42.6 h 7.98 c 1.4,0 2.72,0.34 3.96,1.02 1.28,0.68 1.92,1.58 1.92,2.7 v 12.06 z m -7.62,-2.46 c 0,0.32 0.24,0.48 0.72,0.48 h 4.32 c 0.12,0 0.26,-0.08 0.42,-0.24 0.04,-0.04 0.08,-0.14 0.12,-0.3 l 0.54,-14.34 c 0,-0.16 -0.28,-0.24 -0.84,-0.24 l -5.28,0.24 z m 1.38,20.94 c 3.28,-1.2 4.92,-2.28 4.92,-3.24 0,-0.24 -0.04,-0.36 -0.12,-0.36 v -12.3 c 0.12,-0.08 0.18,-0.14 0.18,-0.18 0,-0.12 -0.14,-0.18 -0.42,-0.18 l -4.56,-0.6 c -0.12,0 -0.26,0.04 -0.42,0.12 -0.12,0.08 -0.2,0.16 -0.24,0.24 v 16.32 z m 38.0119,-35.82 h -4.32 v 37.98 h -5.04 v -38.4 l -4.14,-0.72 0.6,-2.28 h 12.9 z m 8.9634,39.18 h -4.44 v -36.96 l -1.08,-2.88 v -2.76 h 6.06 z m 6.2241,0 v -42.6 h 4.3202 l 4.38,26.04 h 0.48 l 4.08,-26.04 h 3.48 l 1.38,42.6 h -3.96 v -32.1 h -0.42 l -4.14,22.68 -1.98,0.42 -4.26,-26.34 h -0.24 v 35.34 z m 36.7532,0 h -12.84 v -42.6 h 12.84 v 3.72 l -7.5,-0.36 v 13.62 l 7.5,1.38 v 2.88 L 145,175 v 17.22 l 8.52,-0.48 z m 10.145,0 h -3.48 v -40.14 l -1.32,-0.72 v -1.74 h 9.36 c 1.52,0 2.78,0.3 3.78,0.9 1.04,0.56 1.58,1.24 1.62,2.04 l -0.6,16.62 c 0,0.6 -0.28,1.34 -0.84,2.22 -0.52,0.84 -1.5,1.46 -2.94,1.86 l 3.54,6.6 1.26,12.36 -4.38,0.18 -0.96,-11.76 -3.3,-7.08 h -1.74 z m 0.84,-22.98 c 0,0.12 0.06,0.24 0.18,0.36 0.16,0.08 0.34,0.12 0.54,0.12 h 3.18 c 0.24,0 0.36,-0.12 0.36,-0.36 l 0.36,-15.18 c 0,-0.56 -0.26,-1.02 -0.78,-1.38 -0.48,-0.4 -1.52,-0.6 -3.12,-0.6 -0.48,0.16 -0.72,0.4 -0.72,0.72 z"
       fill="#f5f5f5"
       id="path1458" />
  </g>
</svg>
